<?xml version="1.0" encoding="utf-8"?>
<!-- Generator: Adobe Illustrator 16.0.0, SVG Export Plug-In . SVG Version: 6.00 Build 0)  -->
<!DOCTYPE svg PUBLIC "-//W3C//DTD SVG 1.1//EN" "http://www.w3.org/Graphics/SVG/1.1/DTD/svg11.dtd">
<svg version="1.1" id="Layer_1" xmlns="http://www.w3.org/2000/svg" xmlns:xlink="http://www.w3.org/1999/xlink" x="0px" y="0px"
	 width="979.953px" height="377.206px" viewBox="0 0 979.953 377.206" enable-background="new 0 0 979.953 377.206"
	 xml:space="preserve">
<g>
	<linearGradient id="SVGID_1_" gradientUnits="userSpaceOnUse" x1="442.2773" y1="184.4551" x2="814.2559" y2="184.4551">
		<stop  offset="0" style="stop-color:#0C2152"/>
		<stop  offset="1" style="stop-color:#1894EA"/>
	</linearGradient>
	<path fill="url(#SVGID_1_)" d="M400.303,172.021c0-0.665,0.564-1.229,1.227-1.229H421.9c11.742,0,21.408,9.565,21.408,21.215
		c0,11.845-9.666,21.504-21.319,21.504h-17.235v22.354c0,0.665-0.572,1.231-1.516,1.231h-1.709c-0.662,0-1.227-0.566-1.227-1.231
		V172.021z M421.707,209.151c9.289,0,17.145-7.673,17.145-17.238c0-9.282-7.855-16.673-17.243-16.673h-16.854v33.911H421.707z
		 M453.812,172.021c0-0.665,0.473-1.229,1.233-1.229h23.493c11.555,0,21.121,8.714,21.121,20.271
		c0,9.564-6.628,17.236-15.623,19.792l13.828,24.539c0.479,0.759,0.279,1.702-0.664,1.702h-2.934c-0.66,0-1.041-0.281-1.324-0.853
		l-13.742-24.815c-1.234,0.095-2.273,0.095-3.502,0.095h-17.434v24.342c0,0.665-0.566,1.231-1.515,1.231h-1.705
		c-0.662,0-1.233-0.566-1.233-1.231V172.021z M478.348,207.542c9.092,0,16.766-7.105,16.766-16.479c0-9-7.674-15.915-16.855-15.915
		h-19.896v32.395H478.348z M511.218,172.021c0-0.665,0.567-1.229,1.223-1.229h37.987c0.67,0,1.236,0.564,1.236,1.229v1.609
		c0,0.665-0.566,1.229-1.236,1.229H515.76v26.147h30.029c0.662,0,1.236,0.567,1.236,1.229v1.614c0,0.662-0.574,1.229-1.236,1.229
		H515.76v28.039h34.668c0.67,0,1.236,0.566,1.236,1.231v1.514c0,0.665-0.566,1.231-1.236,1.231H512.44
		c-0.655,0-1.223-0.566-1.223-1.231V172.021z M561.409,227.151c0.48-0.569,0.954-1.235,1.421-1.8
		c0.949-1.233,1.992-1.991,3.317-0.855c0.673,0.569,7.581,7.201,16.015,7.201c7.676,0,12.689-4.829,12.689-10.42
		c0-6.534-5.686-10.423-16.578-14.969c-10.42-4.546-16.672-8.809-16.672-19.605c0-6.439,5.117-16.861,20.175-16.861
		c9.288,0,16.2,4.829,16.2,4.829c0.575,0.286,1.711,1.424,0.575,3.224c-0.381,0.569-0.762,1.229-1.143,1.799
		c-0.853,1.328-1.796,1.706-3.313,0.85c-0.661-0.377-6.629-4.354-12.41-4.354c-10.039,0-13.07,6.441-13.07,10.419
		c0,6.346,4.822,10.041,12.791,13.356c12.787,5.208,21.022,10.041,21.022,21.029c0,9.853-9.375,17.049-20.46,17.049
		c-11.174,0-18.758-6.534-19.986-7.672C561.226,229.709,560.282,228.951,561.409,227.151z M610.097,227.151
		c0.474-0.569,0.952-1.235,1.427-1.8c0.943-1.233,1.985-1.991,3.314-0.855c0.66,0.569,7.577,7.201,16.009,7.201
		c7.673,0,12.688-4.829,12.688-10.42c0-6.534-5.685-10.423-16.576-14.969c-10.42-4.546-16.672-8.809-16.672-19.605
		c0-6.439,5.119-16.861,20.179-16.861c9.284,0,16.195,4.829,16.195,4.829c0.569,0.286,1.707,1.424,0.569,3.224
		c-0.379,0.569-0.754,1.229-1.135,1.799c-0.855,1.328-1.799,1.706-3.318,0.85c-0.656-0.377-6.629-4.354-12.41-4.354
		c-10.041,0-13.07,6.441-13.07,10.419c0,6.346,4.836,10.041,12.789,13.356c12.789,5.208,21.028,10.041,21.028,21.029
		c0,9.853-9.374,17.049-20.46,17.049c-11.178,0-18.76-6.534-19.986-7.672C609.908,229.709,608.959,228.951,610.097,227.151z
		 M661.625,172.59c0-0.948,0.852-1.799,1.801-1.799h6.253c0.943,0,1.798,0.851,1.798,1.799v62.706c0,0.947-0.854,1.8-1.798,1.8
		h-6.253c-0.949,0-1.801-0.853-1.801-1.8V172.59z M683.691,171.546c0-0.945,0.852-1.704,1.804-1.704h2.362l39.403,41.871h0.101
		V172.59c0-0.948,0.756-1.799,1.797-1.799h8.714c0.952,0,1.798,0.851,1.798,1.799v63.751c0,0.943-0.846,1.702-1.798,1.702H735.6
		l-39.591-43.479h-0.1v40.731c0,0.947-0.757,1.8-1.798,1.8h-8.616c-0.952,0-1.804-0.853-1.804-1.8V171.546z M782.957,169.935
		c7.96,0,16.671,3.316,23.109,8.903c0.854,0.667,0.951,1.803,0.193,2.562l-7.48,7.956c-0.761,0.66-1.797,0.66-2.553,0.092
		c-3.603-3.313-7.771-4.547-12.415-4.547c-10.323,0-18.662,8.718-18.662,19.141c0,10.321,8.431,18.848,18.751,18.848
		c2.752,0,5.591-0.379,8.432-1.515v-5.495h-5.963c-1.035,0-1.796-0.758-1.796-1.705v-9.38c0-1.041,0.761-1.801,1.796-1.801h19.033
		c0.955,0,1.715,0.857,1.715,1.801l0.093,25.484c0,0.47-0.381,1.23-0.755,1.512c0,0-9.764,6.162-23.498,6.162
		c-18.854,0-34.005-14.97-34.005-33.911C748.952,185.092,764.104,169.935,782.957,169.935z M412.599,130.868
		c2.968,0,5.794,1.151,8.035,3.062c0.264,0.266,0.295,0.659,0.031,0.923l-2.04,2.137c-0.264,0.266-0.562,0.266-0.855,0
		c-1.412-1.247-3.165-1.906-4.967-1.906c-4.119,0-7.377,3.521-7.377,7.635c0,4.081,3.258,7.539,7.404,7.539
		c1.846,0,3.258-0.556,3.92-0.819v-2.801h-2.635c-0.361,0-0.625-0.264-0.625-0.594v-2.601c0-0.359,0.264-0.623,0.625-0.623h6.319
		c0.328,0,0.587,0.293,0.587,0.623v8.427c0,0.266-0.124,0.43-0.259,0.531c0,0-3.39,2.14-8.164,2.14
		c-6.548,0-11.822-5.204-11.822-11.787C400.776,136.169,406.051,130.868,412.599,130.868z M438.289,131.824
		c0-0.332,0.259-0.626,0.621-0.626h9.424c3.947,0,7.172,3.159,7.172,7.079c0,3.026-2.016,5.498-4.877,6.649l4.517,8.362
		c0.23,0.426,0,0.953-0.56,0.953h-3.455c-0.301,0-0.465-0.162-0.529-0.295l-4.381-8.727h-3.648v8.399
		c0,0.327-0.301,0.622-0.633,0.622h-3.029c-0.362,0-0.621-0.295-0.621-0.622V131.824z M447.967,141.702
		c1.743,0,3.256-1.519,3.256-3.358c0-1.747-1.513-3.196-3.256-3.196H442.6v6.555H447.967z M482.807,130.868
		c6.583,0,11.849,5.301,11.849,11.886c0,6.583-5.266,11.817-11.849,11.817c-6.584,0-11.822-5.234-11.822-11.817
		C470.984,136.169,476.223,130.868,482.807,130.868z M482.807,150.294c4.152,0,7.57-3.393,7.57-7.54c0-4.149-3.418-7.606-7.57-7.606
		c-4.149,0-7.533,3.457-7.533,7.606C475.273,146.901,478.657,150.294,482.807,150.294z M511.062,131.824
		c0-0.332,0.293-0.626,0.621-0.626h3.133c0.361,0,0.625,0.294,0.625,0.626v13.463c0,2.801,1.912,5.007,4.77,5.007
		c2.863,0,4.812-2.206,4.812-4.972v-13.498c0-0.332,0.258-0.626,0.625-0.626h3.122c0.333,0,0.626,0.294,0.626,0.626v13.693
		c0,5.004-3.979,9.054-9.186,9.054c-5.164,0-9.148-4.05-9.148-9.054V131.824z M547.475,131.824c0-0.332,0.271-0.626,0.636-0.626
		h7.729c4.055,0,7.376,3.292,7.376,7.277c0,4.081-3.321,7.405-7.338,7.405h-4.116v7.739c0,0.327-0.291,0.622-0.625,0.622h-3.026
		c-0.365,0-0.636-0.295-0.636-0.622V131.824z M555.581,141.864c1.841,0,3.392-1.483,3.392-3.422c0-1.812-1.551-3.196-3.392-3.196
		h-3.819v6.618H555.581z M857.058,237.083c1.125,0,2.015-0.924,2.015-2.11v-22.591h22.591c1.222,0,2.112-0.885,2.112-2.109v-12.746
		c0-1.131-0.93-2.015-2.112-2.015h-22.591v-22.597c0-1.22-0.89-2.11-2.105-2.11h-12.748c-1.124,0-2.015,0.93-2.015,2.11v22.597
		h-22.599c-1.219,0-2.112,0.884-2.112,2.104v12.75c0,1.132,0.93,2.017,2.112,2.017h22.599v22.591c0,1.225,0.88,2.11,2.102,2.11
		H857.058z"/>
	
		<radialGradient id="SVGID_2_" cx="-822.415" cy="1039.8809" r="177.8252" gradientTransform="matrix(0.8192 -0.5736 0.5736 0.8192 352.0005 -1186.9377)" gradientUnits="userSpaceOnUse">
		<stop  offset="0" style="stop-color:#1894EA"/>
		<stop  offset="0.1236" style="stop-color:#178EE2"/>
		<stop  offset="0.3146" style="stop-color:#167ECC"/>
		<stop  offset="0.5491" style="stop-color:#1363A9"/>
		<stop  offset="0.8156" style="stop-color:#0F3E78"/>
		<stop  offset="1" style="stop-color:#0C2152"/>
	</radialGradient>
	<path fill="url(#SVGID_2_)" d="M299.795,200.096c-4.042,24.029-17.306,46.495-38.842,61.578
		c-21.598,15.122-47.328,19.885-71.342,15.392c20.046-6.859,40.699-17.437,60.305-31.161
		C269.975,231.857,286.832,216.134,299.795,200.096z M246.514,241.048c-29.014,20.312-60.332,33.717-88.188,37.736
		c-5.763,0.832-11.241,1.244-16.409,1.244c-20.472,0-36.026-6.443-44.64-18.759c-10.802-15.425-9.236-37.924,4.419-63.364
		c3.164-5.912,6.942-11.826,11.195-17.681c1.293-28.177,15.086-55.477,39.981-72.906c24.955-17.477,55.405-21.072,82.392-12.574
		c36.326-10.279,67.635-6.528,81.291,12.978l0,0C338.383,138.908,306.975,198.72,246.514,241.048z M244.58,98.242
		c15.375,6.696,29.188,17.476,39.506,32.216c10.31,14.728,15.762,31.381,16.803,48.101c17.086-26.1,22.157-51.225,10.813-67.432
		v-0.002C300.339,94.915,274.97,91.1,244.58,98.242z M169.01,270.706c-15.285-6.705-28.998-17.501-39.272-32.175
		c-10.283-14.688-15.688-31.291-16.744-47.971c-2.201,3.375-4.263,6.762-6.072,10.147c-12.537,23.372-14.242,43.668-4.791,57.16
		c9.443,13.487,29.108,18.837,55.35,15.046C161.253,272.372,165.114,271.597,169.01,270.706z"/>
</g>
</svg>
